<svg width="20" height="20" viewBox="0 0 20 20" fill="none" xmlns="http://www.w3.org/2000/svg">
<path d="M13.5556 2C13.7733 2.00003 13.9834 2.07996 14.1461 2.22464C14.3088 2.36931 14.4127 2.56867 14.4382 2.78489L14.4444 2.88889V3.77778H16.2222C16.6707 3.77764 17.1027 3.94703 17.4316 4.252C17.7605 4.55697 17.9619 4.97497 17.9956 5.42222L18 5.55556V16.2222C18.0001 16.6707 17.8308 17.1027 17.5258 17.4316C17.2208 17.7605 16.8028 17.9619 16.3556 17.9956L16.2222 18H3.77778C3.32927 18.0001 2.89727 17.8308 2.5684 17.5258C2.23953 17.2208 2.03808 16.8028 2.00444 16.3556L2 16.2222V5.55556C1.99986 5.10704 2.16925 4.67505 2.47422 4.34618C2.77919 4.01731 3.1972 3.81586 3.64444 3.78222L3.77778 3.77778H5.55556V2.88889C5.55581 2.66233 5.64256 2.44442 5.79809 2.27967C5.95362 2.11493 6.16618 2.01579 6.39235 2.00251C6.61852 1.98924 6.84123 2.06282 7.01496 2.20824C7.1887 2.35365 7.30035 2.55991 7.32711 2.78489L7.33333 2.88889V3.77778H12.6667V2.88889C12.6667 2.65314 12.7603 2.42705 12.927 2.26035C13.0937 2.09365 13.3198 2 13.5556 2ZM16.2222 10H3.77778V16.2222H16.2222V10ZM16.2222 5.55556H3.77778V8.22222H16.2222V5.55556Z" fill="#BEBEBE"/>
</svg>
