<svg width="20" height="20" viewBox="0 0 20 20" fill="none" xmlns="http://www.w3.org/2000/svg">
<path fill-rule="evenodd" clip-rule="evenodd" d="M7.17602 3.51494C7.99676 3.17498 8.87643 3 9.76479 3C10.6532 3 11.5328 3.17498 12.3536 3.51494C13.1743 3.8549 13.92 4.35319 14.5482 4.98136C15.1764 5.60953 15.6747 6.35527 16.0146 7.17602C16.3546 7.99676 16.5296 8.87643 16.5296 9.76479C16.5296 10.6532 16.3546 11.5328 16.0146 12.3536C15.7878 12.9011 15.4906 13.4153 15.1313 13.8834L17.7416 16.4937C18.0861 16.8383 18.0861 17.397 17.7416 17.7416C17.397 18.0861 16.8383 18.0861 16.4937 17.7416L13.8835 15.1313C12.7085 16.0331 11.2622 16.5296 9.76479 16.5296C7.97066 16.5296 6.25001 15.8169 4.98136 14.5482C3.71272 13.2796 3 11.5589 3 9.76479C3 7.97066 3.71272 6.25001 4.98136 4.98136C5.60953 4.35319 6.35527 3.8549 7.17602 3.51494ZM9.76479 4.76471C9.10817 4.76471 8.45798 4.89404 7.85134 5.14531C7.2447 5.39659 6.6935 5.7649 6.2292 6.2292C5.2915 7.16689 4.76471 8.43869 4.76471 9.76479C4.76471 11.0909 5.2915 12.3627 6.2292 13.3004C7.16689 14.2381 8.43869 14.7649 9.76479 14.7649C11.0909 14.7649 12.3627 14.2381 13.3004 13.3004C13.7647 12.8361 14.133 12.2849 14.3843 11.6782C14.6355 11.0716 14.7649 10.4214 14.7649 9.76479C14.7649 9.10817 14.6355 8.45798 14.3843 7.85134C14.133 7.2447 13.7647 6.6935 13.3004 6.2292C12.8361 5.7649 12.2849 5.39659 11.6782 5.14531C11.0716 4.89404 10.4214 4.76471 9.76479 4.76471Z" fill="#1D1D1D"/>
</svg>
