<svg width="170" height="36" viewBox="0 0 170 36" fill="none" xmlns="http://www.w3.org/2000/svg">
<g clip-path="url(#clip0_2008_3203)">
<path d="M14.384 14.444H17.462V26.396C17.4654 27.4583 17.3138 28.5155 17.012 29.534C16.722 30.4813 16.2396 31.3586 15.595 32.111C15.0547 32.7784 14.3684 33.3128 13.589 33.673C12.4728 34.1134 11.2784 34.3217 10.079 34.285C9.21574 34.2855 8.35366 34.2213 7.5 34.093C6.67286 34.0072 5.87242 33.7511 5.149 33.341C4.47666 32.9222 3.89463 32.3735 3.437 31.727C2.93844 31.0882 2.57507 30.3547 2.369 29.571C2.08018 28.5365 1.92261 27.4698 1.9 26.396V16.089C1.41494 15.3801 0.762274 14.802 0 14.406L1.9 14.426H4.978V26.661C4.95179 27.6149 5.21047 28.5549 5.721 29.361C6.12684 30.04 6.70955 30.596 7.40685 30.9696C8.10416 31.3432 8.88986 31.5203 9.68 31.482C10.3144 31.5075 10.9471 31.3993 11.537 31.1644C12.1268 30.9295 12.6607 30.5731 13.1039 30.1185C13.5472 29.6639 13.8898 29.1211 14.1096 28.5254C14.3295 27.9298 14.4216 27.2946 14.38 26.661V16.089C14.417 15.774 13.81 15.3 12.461 14.443L14.384 14.444Z" fill="white"/>
<path d="M21.8391 14.444H24.9001V26.4C24.9036 27.4623 24.752 28.5195 24.4501 29.538C24.1734 30.4873 23.6959 31.3661 23.0501 32.115C22.5047 32.7782 21.8175 33.3106 21.0391 33.673C19.9288 34.1121 18.7406 34.3203 17.5471 34.285C16.6793 34.2853 15.8125 34.2211 14.9541 34.093C14.1316 34.0092 13.336 33.753 12.6191 33.341C11.9426 32.9222 11.3557 32.3737 10.8921 31.727C10.3998 31.0843 10.0362 30.3526 9.82115 29.572C9.53188 28.5376 9.3743 27.4708 9.35215 26.397V16.089C8.87582 15.3724 8.22097 14.7924 7.45215 14.406L9.35215 14.426H9.90615C10.0061 14.302 10.1131 14.197 10.2181 14.093C12.2391 12.024 16.2861 10.793 22.1481 10.341C26.7883 9.96234 31.2781 8.51638 35.2671 6.116C37.6921 4.60452 39.6914 2.49951 41.0761 0C40.1521 2.36322 38.8043 4.53788 37.0991 6.417C35.26 8.50339 32.9916 10.1676 30.4494 11.2957C27.9072 12.4238 25.1512 12.9892 22.3701 12.953C17.9961 12.461 14.4871 12.653 12.6701 14.215L12.4291 14.425V26.661C12.4109 27.6139 12.6689 28.5516 13.1721 29.361C13.5823 30.0404 14.1686 30.5963 14.8689 30.9697C15.5692 31.3431 16.3574 31.5201 17.1501 31.482C17.9394 31.5002 18.7203 31.3162 19.4185 30.9476C20.1166 30.579 20.709 30.038 21.1391 29.376C21.6513 28.567 21.8939 27.6165 21.8321 26.661V16.089C21.8481 15.774 21.2441 15.3 19.9121 14.443L21.8391 14.444Z" fill="white"/>
<path d="M43.782 23.9259V15.5259H46.111V31.6259H43.782V25.7159H39.227V31.3069H36.9V25.7159H33.011V23.9259H43.782ZM41.072 16.5619C41.4226 16.8877 41.7023 17.2823 41.8935 17.7211C42.0847 18.1598 42.1834 18.6333 42.1834 19.1119C42.1834 19.5905 42.0847 20.064 41.8935 20.5027C41.7023 20.9415 41.4226 21.3361 41.072 21.6619C40.1483 22.4592 38.9513 22.8668 37.733 22.7989C36.5203 22.8699 35.328 22.4636 34.411 21.6669C34.065 21.3384 33.7894 20.9429 33.6011 20.5045C33.4128 20.0662 33.3157 19.594 33.3157 19.1169C33.3157 18.6398 33.4128 18.1677 33.6011 17.7293C33.7894 17.2909 34.065 16.8954 34.411 16.5669C35.3325 15.7778 36.5238 15.3764 37.735 15.4469C38.9504 15.3786 40.1456 15.7795 41.074 16.5669M36.168 17.7719C35.9951 17.948 35.8599 18.1574 35.7707 18.3875C35.6815 18.6175 35.6401 18.8633 35.649 19.1099C35.6418 19.3567 35.684 19.6025 35.7731 19.8328C35.8622 20.0631 35.9965 20.2732 36.168 20.4509C36.3744 20.6569 36.6221 20.8168 36.8948 20.9202C37.1674 21.0236 37.4589 21.0681 37.75 21.0509C38.0437 21.0673 38.3376 21.0225 38.6131 20.9192C38.8885 20.8159 39.1395 20.6564 39.35 20.4509C39.6831 20.0843 39.8676 19.6067 39.8676 19.1114C39.8676 18.6161 39.6831 18.1385 39.35 17.7719C39.1369 17.571 38.8852 17.4156 38.6101 17.315C38.335 17.2144 38.0424 17.1709 37.75 17.1869C37.4602 17.1698 37.17 17.2129 36.8977 17.3136C36.6254 17.4143 36.3769 17.5703 36.168 17.7719Z" fill="white"/>
<path d="M56.6549 17.63H51.1209V22.23H58.8109V20.83H54.8429V19.057H58.8109V15.53H61.1359V24.665H58.8109V23.997H50.7379C50.4667 24.0191 50.1939 23.984 49.9371 23.8941C49.6802 23.8042 49.4451 23.6614 49.2469 23.475C48.9146 23.0607 48.7516 22.5357 48.7909 22.006V15.86H56.6549V17.63ZM61.1359 25.53V31.605H58.8109V27.323H49.2289V25.53H61.1359Z" fill="white"/>
<path d="M68.5961 17.616H65.9141V27.958H70.0071V15.53H72.3341V21.923H74.0661V15.53H76.3941V31.63H74.0661V23.758H72.3341V31.624H70.0071V29.748H65.5761C65.2975 29.7708 65.0172 29.735 64.7532 29.643C64.4892 29.5511 64.2474 29.4049 64.0431 29.214C63.7102 28.7985 63.5476 28.272 63.5881 27.741V15.861H68.5971L68.5961 17.616Z" fill="white"/>
<path d="M81.521 16.4819V15.4419H83.846V16.4819H87.046V18.1909H84.664C85.5253 18.3763 86.2794 18.8923 86.764 19.6279C87.1457 20.3041 87.2466 21.1031 87.045 21.8529C86.8199 22.6219 86.3222 23.2825 85.645 23.7109C84.7329 24.2609 83.6874 24.5502 82.6223 24.5474C81.5572 24.5446 80.5132 24.2497 79.604 23.6949C78.9448 23.2622 78.4607 22.6094 78.238 21.8529C78.0296 21.1065 78.1207 20.3081 78.492 19.6279C78.9765 18.892 79.7307 18.376 80.592 18.1909H78.226V16.4819H81.521ZM90.976 25.7369V31.6119H88.651V27.5399H79.289V25.7339L90.976 25.7369ZM81.012 19.8139C80.8448 19.9661 80.7123 20.1525 80.6235 20.3604C80.5346 20.5683 80.4915 20.7929 80.497 21.0189C80.497 21.2462 80.5426 21.4712 80.6311 21.6806C80.7195 21.8899 80.8491 22.0795 81.012 22.2379C81.2264 22.4421 81.4797 22.6009 81.7569 22.7048C82.034 22.8088 82.3293 22.8558 82.625 22.8429C82.9239 22.8555 83.2223 22.8085 83.5028 22.7046C83.7834 22.6007 84.0404 22.4421 84.259 22.2379C84.4298 22.0837 84.5668 21.8957 84.6613 21.6859C84.7558 21.4761 84.8057 21.249 84.808 21.0189C84.8117 20.7899 84.7643 20.5629 84.6694 20.3545C84.5744 20.1461 84.4342 19.9614 84.259 19.8139C83.8046 19.4283 83.2203 19.2302 82.625 19.2599C82.036 19.2289 81.4578 19.4275 81.012 19.8139ZM90.976 15.5299V19.3299H92.562V21.1719H90.98V24.6719H88.655V15.5259L90.976 15.5299Z" fill="white"/>
<path d="M106.783 30.4689H93.3521V28.6939H95.0611V21.4329H97.386V28.6939H99.203V21.4329H101.528V28.6939H106.779L106.783 30.4689ZM106.104 15.8599V21.9849C106.108 23.1485 106.034 24.3111 105.883 25.4649C105.747 26.5458 105.532 27.6154 105.239 28.6649H102.993C103.246 27.7748 103.439 26.8687 103.571 25.9529C103.712 24.9159 103.781 23.8704 103.777 22.8239V17.8349H94.0551V15.8599H106.104Z" fill="white"/>
<path d="M123.695 15.624H125.823V26.904H123.695V15.624ZM121.759 19.288H124.495V20.984H121.759V19.288ZM121.759 22.472H124.495V24.152H121.759V22.472ZM113.471 17.16H121.599V18.824H113.471V17.16ZM117.631 19.352C119.647 19.352 121.103 20.552 121.103 22.264C121.103 23.976 119.647 25.176 117.631 25.176C115.615 25.176 114.159 23.976 114.159 22.264C114.159 20.552 115.615 19.352 117.631 19.352ZM117.631 20.984C116.767 20.984 116.159 21.448 116.159 22.264C116.159 23.096 116.767 23.544 117.631 23.544C118.495 23.544 119.103 23.096 119.103 22.264C119.103 21.448 118.495 20.984 117.631 20.984ZM116.575 15.576H118.703V18.184H116.575V15.576ZM116.015 28.472H126.143V30.168H116.015V28.472ZM116.015 25.976H118.159V29.256H116.015V25.976ZM131.118 17.256H132.862V18.184C132.862 21.016 131.534 23.56 128.67 24.504L127.614 22.824C130.078 22.008 131.118 20.072 131.118 18.184V17.256ZM131.55 17.256H133.278V18.184C133.278 19.912 134.27 21.608 136.654 22.328L135.646 23.992C132.83 23.144 131.55 20.824 131.55 18.184V17.256ZM128.174 16.6H136.174V18.296H128.174V16.6ZM137.358 15.608H139.486V24.392H137.358V15.608ZM138.894 19.016H141.454V20.76H138.894V19.016ZM134.654 24.664C137.726 24.664 139.662 25.736 139.662 27.544C139.662 29.352 137.726 30.424 134.654 30.424C131.566 30.424 129.63 29.352 129.63 27.544C129.63 25.736 131.566 24.664 134.654 24.664ZM134.654 26.328C132.766 26.328 131.742 26.712 131.742 27.544C131.742 28.376 132.766 28.792 134.654 28.792C136.542 28.792 137.55 28.376 137.55 27.544C137.55 26.712 136.542 26.328 134.654 26.328ZM152.397 15.608H154.541V23.096H152.397V15.608ZM144.653 23.752H154.541V27.768H146.765V29.256H144.685V26.232H152.429V25.368H144.653V23.752ZM144.685 28.68H154.909V30.328H144.685V28.68ZM145.693 15.944H147.453V17.064C147.453 19.8 146.077 22.28 143.181 23.16L142.157 21.48C144.637 20.728 145.693 18.872 145.693 17.064V15.944ZM146.125 15.944H147.869V17.064C147.869 18.824 148.909 20.552 151.325 21.24L150.301 22.888C147.453 22.056 146.125 19.736 146.125 17.064V15.944ZM158.187 24.488H160.283V25.736H166.219V24.488H168.331V30.264H158.187V24.488ZM160.283 27.32V28.6H166.219V27.32H160.283ZM156.619 22.072H170.011V23.752H156.619V22.072ZM162.235 15.768H164.059V16.216C164.059 18.792 161.851 20.92 158.027 21.416L157.275 19.768C160.619 19.368 162.235 17.72 162.235 16.216V15.768ZM162.587 15.768H164.411V16.216C164.411 17.704 166.027 19.368 169.355 19.768L168.603 21.416C164.779 20.92 162.587 18.776 162.587 16.216V15.768Z" fill="white"/>
</g>
<defs>
<clipPath id="clip0_2008_3203">
<rect width="170" height="36" fill="white"/>
</clipPath>
</defs>
</svg>
