<svg width="24" height="24" viewBox="0 0 24 24" fill="none" xmlns="http://www.w3.org/2000/svg">
    <path d="M12.7778 20.2273C12.7778 20.4322 12.6958 20.6288 12.55 20.7737C12.4041 20.9186 12.2063 21 12 21C11.7937 21 11.5959 20.9186 11.45 20.7737C11.3042 20.6288 11.2222 20.4322 11.2222 20.2273V9.729L7.88322 13.0463C7.73653 13.1871 7.54006 13.265 7.33613 13.2632C7.1322 13.2614 6.93713 13.1802 6.79292 13.0369C6.64871 12.8936 6.56691 12.6998 6.56514 12.4972C6.56337 12.2946 6.64177 12.0994 6.78344 11.9537L11.4501 7.31732C11.596 7.17245 11.7938 7.09107 12 7.09107C12.2062 7.09107 12.404 7.17245 12.5499 7.31732L17.2166 11.9537C17.3582 12.0994 17.4366 12.2946 17.4349 12.4972C17.4331 12.6998 17.3513 12.8936 17.2071 13.0369C17.0629 13.1802 16.8678 13.2614 16.6639 13.2632C16.4599 13.265 16.2635 13.1871 16.1168 13.0463L12.7778 9.729V20.2273ZM5.77778 5.54545C5.5715 5.54545 5.37367 5.46404 5.22781 5.31913C5.08194 5.17421 5 4.97767 5 4.77273C5 4.56779 5.08194 4.37124 5.22781 4.22633C5.37367 4.08141 5.5715 4 5.77778 4H18.2222C18.4285 4 18.6263 4.08141 18.7722 4.22633C18.9181 4.37124 19 4.56779 19 4.77273C19 4.97767 18.9181 5.17421 18.7722 5.31913C18.6263 5.46404 18.4285 5.54545 18.2222 5.54545H5.77778Z" fill="#0098E6"/>
</svg>